<svg xmlns="http://www.w3.org/2000/svg" xmlns:xlink="http://www.w3.org/1999/xlink" width="816.713" height="562.986" viewBox="0 0 816.713 562.986">
  <defs>
    <linearGradient id="linear-gradient" x1="0.5" y1="1" x2="0.5" gradientUnits="objectBoundingBox">
      <stop offset="0" stop-color="gray" stop-opacity="0.251"/>
      <stop offset="0.54" stop-color="gray" stop-opacity="0.122"/>
      <stop offset="1" stop-color="gray" stop-opacity="0.102"/>
    </linearGradient>
  </defs>
  <g id="Group_4" data-name="Group 4" transform="translate(0.003 0)" opacity="0.51">
    <path id="Path_1" data-name="Path 1" d="M274.473,80.2c27.708-24.959,71.207-30.041,110.8-28.055,124.355,6.241,236.609,66.86,333.708,135.431,35.151,24.824,69.758,51.6,92.6,85.761,46.454,69.589,32.67,166-31.914,223.32-21.976,19.509-48.617,34.459-75.964,47.719-48.624,23.566-101.079,42.481-156.276,47.867-39.357,3.838-79.166.707-118.326-4.637C319.781,572.64,212.482,539.546,122.544,482.9c-39.463-24.839-76.643-55.72-92.9-95.926s-5.853-91.105,34.423-114.89c16.66-9.839,36.572-14.278,56.074-18.456,28.7-6.135,57.862-12.193,83.768-24.676,26.754-12.893,58.428-37.83,53.133-66.373C251.359,131.98,246.8,105.084,274.473,80.2Z" transform="translate(-22.3 -51.76)" fill="#2b4578" opacity="0.1"/>
    <path id="Path_2" data-name="Path 2" d="M279,498.3s7.33-5.252,14.914-2.007c0,0-2.121,4.51-11.571,4.453Z" transform="translate(-97.554 -181.767)" fill="#2b4578"/>
    <path id="Path_3" data-name="Path 3" d="M277.582,500s-1.958,8.8,4.008,14.511c0,0,3.308-3.725-.452-12.391Z" transform="translate(-97.048 -183.164)" fill="#2b4578"/>
    <path id="Path_4" data-name="Path 4" d="M264,486.224s.269-7.429,17.091-5.612c0,0,.262,4.778-5.52,7.266S267.018,488.577,264,486.224Z" transform="translate(-93.157 -177.397)" fill="#2b4578"/>
    <path id="Path_5" data-name="Path 5" d="M261.232,488.65s-6.991,2.545-.078,18c0,0,4.623-1.223,5.209-7.493S264.391,490.813,261.232,488.65Z" transform="translate(-91.428 -179.837)" fill="#2b4578"/>
    <path id="Path_6" data-name="Path 6" d="M248.548,469.5s-1.414-12.158,15.72-11.564c0,0,1.633,10.991-12.589,14.377Z" transform="translate(-88.619 -170.825)" fill="#2b4578"/>
    <path id="Path_7" data-name="Path 7" d="M231.83,450.878s1.817-13.9,19.085-10.447c0,0,.523,11.946-16.144,13.635Z" transform="translate(-83.726 -165.539)" fill="#2b4578"/>
    <path id="Path_8" data-name="Path 8" d="M219.38,431.281s3.407-13.635,20.5-10.228c0,0-3.534,12.264-19.276,12.674Z" transform="translate(-80.076 -159.86)" fill="#2b4578"/>
    <path id="Path_9" data-name="Path 9" d="M207.53,411.9s3.3-14.137,19.792-10.546c0,0-4.948,13.48-18.639,12.886Z" transform="translate(-76.602 -154.076)" fill="#2b4578"/>
    <path id="Path_10" data-name="Path 10" d="M199.66,392.148s2.3-17.2,17.671-14c0,0-3.831,15.713-16.469,16.441Z" transform="translate(-74.295 -147.326)" fill="#2b4578"/>
    <path id="Path_11" data-name="Path 11" d="M192.09,370.147s2.877-17.353,18.484-12.935c0,0-5.429,16.5-17.318,15.275Z" transform="translate(-72.076 -141.094)" fill="#2b4578"/>
    <path id="Path_12" data-name="Path 12" d="M187.13,347.774s4.948-17.431,16.908-17.424c0,0-5.054,18.378-15.777,20.838Z" transform="translate(-70.622 -133.43)" fill="#2b4578"/>
    <path id="Path_13" data-name="Path 13" d="M183.71,326.373s5.323-20.965,15.091-19.735c0,0-3.626,16-14.625,22.951Z" transform="translate(-69.619 -126.464)" fill="#2b4578"/>
    <path id="Path_14" data-name="Path 14" d="M181.28,302.468s5.068-17.487,14.625-18.548c0,0-3.251,17.141-14.243,23.029Z" transform="translate(-68.907 -119.819)" fill="#2b4578"/>
    <path id="Path_15" data-name="Path 15" d="M178.76,279.891s6.489-17.565,12.808-18.2c0,0-2.453,17.141-12.066,21.014Z" transform="translate(-68.168 -113.302)" fill="#2b4578"/>
    <path id="Path_16" data-name="Path 16" d="M176.83,257.656s3.676-18.951,9.938-20.746c0,0-.276,15.388-9.253,22.124Z" transform="translate(-67.602 -106.038)" fill="#2b4578"/>
    <path id="Path_17" data-name="Path 17" d="M172.4,231.312s4.05-15.141,9.083-17.622c0,0-.339,17.671-7.775,21.205Z" transform="translate(-66.304 -99.231)" fill="#2b4578"/>
    <path id="Path_18" data-name="Path 18" d="M168.094,209.551,166.15,183.2s10.32,19.551,2.827,30.981Z" transform="translate(-64.471 -90.292)" fill="#2b4578"/>
    <path id="Path_19" data-name="Path 19" d="M153.133,175.478s-7.627-19.007-9.323-20.018c0,0,14,12.016,13.289,28.118Z" transform="translate(-57.922 -82.16)" fill="#2b4578"/>
    <path id="Path_20" data-name="Path 20" d="M243.243,474.194s-12.193-1.124-11.168,16c0,0,11.027,1.364,14.059-12.942Z" transform="translate(-83.78 -175.595)" fill="#2b4578"/>
    <path id="Path_21" data-name="Path 21" d="M225.873,454.82s-14.01.488-12.2,17.982c0,0,11.84,1.654,15.1-14.78Z" transform="translate(-78.356 -169.92)" fill="#2b4578"/>
    <path id="Path_22" data-name="Path 22" d="M210.748,436.986s-12.949-5.478-20.5,10.228c0,0,11.939,4.517,21.714-7.775Z" transform="translate(-71.537 -164.42)" fill="#2b4578"/>
    <path id="Path_23" data-name="Path 23" d="M198.7,416.265s-13.26-5.853-20.336,9.486c0,0,13.748,4.149,21.5-7.153Z" transform="translate(-68.051 -158.296)" fill="#2b4578"/>
    <path id="Path_24" data-name="Path 24" d="M190.567,396.63s-12.992-11.493-22.527,1c0,0,13.183,9.359,23.206,1.64Z" transform="translate(-65.026 -151.447)" fill="#2b4578"/>
    <path id="Path_25" data-name="Path 25" d="M183.733,373.186s-13.077-11.762-22.513,1.414c0,0,14.54,9.507,23.064,1.124Z" transform="translate(-63.026 -144.571)" fill="#2b4578"/>
    <path id="Path_26" data-name="Path 26" d="M179.968,349.356s-10.3-14.914-21.608-11.069c0,0,10.7,15.8,21.636,14.667Z" transform="translate(-62.188 -135.571)" fill="#2b4578"/>
    <path id="Path_27" data-name="Path 27" d="M175.967,327.931s-10.539-18.887-19.657-15.19c0,0,7.62,14.533,20.025,18.413Z" transform="translate(-61.587 -128.128)" fill="#2b4578"/>
    <path id="Path_28" data-name="Path 28" d="M173.877,303.427s-10.645-14.773-20-12.561c0,0,8.814,15.056,21.142,16.915Z" transform="translate(-60.874 -121.789)" fill="#2b4578"/>
    <path id="Path_29" data-name="Path 29" d="M174.114,280.008s-8.447-16.71-14.794-16.618c0,0,4.389,16.752,14.377,19.495Z" transform="translate(-62.469 -113.8)" fill="#2b4578"/>
    <path id="Path_30" data-name="Path 30" d="M170.677,258.8s-9.33-16.894-15.847-16.681c0,0,5,14.561,15.614,18.208Z" transform="translate(-61.153 -107.564)" fill="#2b4578"/>
    <path id="Path_31" data-name="Path 31" d="M169.252,233.606s-7.033-14.01-12.462-15.416c0,0,3.909,17.247,11.889,19.226Z" transform="translate(-61.728 -100.55)" fill="#2b4578"/>
    <path id="Path_32" data-name="Path 32" d="M161.421,210.9,146.09,189.38s4.545,21.644,17.607,25.644Z" transform="translate(-58.591 -92.104)" fill="#2b4578"/>
    <path id="Path_33" data-name="Path 33" d="M144.961,181.146S127.707,170.169,127,168.31c0,0,9.189,15.961,25.206,18.222Z" transform="translate(-52.994 -85.927)" fill="#2b4578"/>
    <path id="Path_34" data-name="Path 34" d="M140.34,171.815s-20.046-17.848-24.98-17.636c0,0,15.975.113,25.446,16.632Z" transform="translate(-49.582 -81.784)" fill="#2b4578"/>
    <path id="Path_35" data-name="Path 35" d="M167.068,224.361l-.707.12c-4.722-28.309-10.666-44.913-16.731-46.765l.2-.707C156.253,178.961,162.233,195.324,167.068,224.361Z" transform="translate(-59.629 -88.478)" fill="#444053"/>
    <path id="Path_36" data-name="Path 36" d="M181.862,310.887l-1.06.127c-.325-2.644-.608-5.358-.827-8.058-1.916-23.5-4.319-45.061-7-61.191l.587-.785c2.693,16.158,5.563,38.353,7.485,61.891C181.261,305.557,181.537,308.25,181.862,310.887Z" transform="translate(-66.471 -107.231)" fill="#444053"/>
    <path id="Path_37" data-name="Path 37" d="M271.438,464.712c-.191-.078-19.247-7.726-39.463-26.938A154.544,154.544,0,0,1,202.4,399.11c-9.691-17.961-16.031-40.255-18.71-62.04l1.131.481c6.008,48.9,29.631,81.584,48.065,99.149,20.018,19.042,38.876,26.613,39.053,26.683Z" transform="translate(-69.613 -135.4)" fill="#444053"/>
    <g id="Group_1" data-name="Group 1" transform="translate(157.067 4.248)" opacity="0.7">
      <path id="Path_38" data-name="Path 38" d="M320.84,435.9s8.56-2.827,14.844,2.523c0,0-3.372,3.676-12.377.806Z" transform="translate(-266.887 -168.403)" fill="#2b4578"/>
      <path id="Path_39" data-name="Path 39" d="M318.591,436.23s-4.481,7.825-.488,15.042c0,0,4.241-2.566,3.259-11.96Z" transform="translate(-265.599 -168.718)" fill="#2b4578"/>
      <path id="Path_40" data-name="Path 40" d="M309.75,420.013s2.474-7.012,17.989-.276c0,0-1.166,4.644-7.436,5.294S311.941,423.144,309.75,420.013Z" transform="translate(-263.636 -163.026)" fill="#2b4578"/>
      <path id="Path_41" data-name="Path 41" d="M305.968,420.89s-7.422.353-5.429,17.155c0,0,4.785.212,7.21-5.605S308.343,423.887,305.968,420.89Z" transform="translate(-260.836 -164.221)" fill="#2b4578"/>
      <path id="Path_42" data-name="Path 42" d="M299.3,399.734s2.255-12.016,18.442-6.362c0,0-1.7,10.977-16.293,9.981Z" transform="translate(-260.572 -155.71)" fill="#2b4578"/>
      <path id="Path_43" data-name="Path 43" d="M288.94,377.022s5.867-12.723,21.3-4.3c0,0-3.054,11.557-19.474,8.214Z" transform="translate(-257.535 -149.256)" fill="#2b4578"/>
      <path id="Path_44" data-name="Path 44" d="M282.9,354.8s7.316-12.016,22.619-3.669c0,0-7.068,10.645-22.174,6.362Z" transform="translate(-255.764 -142.907)" fill="#2b4578"/>
      <path id="Path_45" data-name="Path 45" d="M277.31,332.742s7.351-12.5,22.046-4.177c0,0-8.73,11.394-21.622,6.757Z" transform="translate(-254.126 -136.318)" fill="#2b4578"/>
      <path id="Path_46" data-name="Path 46" d="M275.27,311.524s7.309-15.734,21.05-8.1c0,0-8.334,13.854-20.612,10.793Z" transform="translate(-253.527 -129.172)" fill="#2b4578"/>
      <path id="Path_47" data-name="Path 47" d="M274.69,288.235s7.91-15.713,21.488-6.849c0,0-10.087,14.137-21.071,9.429Z" transform="translate(-253.357 -122.53)" fill="#2b4578"/>
      <path id="Path_48" data-name="Path 48" d="M276.16,265.792s9.9-15.169,21.318-11.606c0,0-10.3,16.067-21.262,15.2Z" transform="translate(-253.788 -115.192)" fill="#2b4578"/>
      <path id="Path_49" data-name="Path 49" d="M278.789,244.145S290.1,225.717,299.068,229.8c0,0-8.228,14.2-20.788,17.558Z" transform="translate(-254.41 -108.028)" fill="#2b4578"/>
      <path id="Path_50" data-name="Path 50" d="M283.491,220.706s10.051-15.19,19.481-13.359c0,0-8.2,15.4-20.442,17.749Z" transform="translate(-255.656 -101.574)" fill="#2b4578"/>
      <path id="Path_51" data-name="Path 51" d="M288.2,198.2s11.415-14.844,17.636-13.557c0,0-7.443,15.635-17.77,16.462Z" transform="translate(-257.28 -94.942)" fill="#2b4578"/>
      <path id="Path_52" data-name="Path 52" d="M292.71,176.081s9.147-16.964,15.664-16.851c0,0-4.849,14.61-15.416,18.378Z" transform="translate(-258.64 -87.513)" fill="#2b4578"/>
      <path id="Path_53" data-name="Path 53" d="M296.7,149.5s8.376-13.246,13.918-14.137c0,0-5.584,16.78-13.727,17.961Z" transform="translate(-259.81 -80.516)" fill="#2b4578"/>
      <path id="Path_54" data-name="Path 54" d="M298.537,126.323l5.987-25.743s4.036,21.735-6.524,30.394Z" transform="translate(-260.191 -70.32)" fill="#2b4578"/>
      <path id="Path_55" data-name="Path 55" d="M297.118,89.342s-1.633-20.414-2.948-21.912c0,0,9.8,15.607,4.326,30.8Z" transform="translate(-259.068 -60.602)" fill="#2b4578"/>
      <path id="Path_56" data-name="Path 56" d="M292.3,402.477s-11.31-4.693-15.416,11.96c0,0,10.115,4.58,17.268-8.178Z" transform="translate(-253.999 -158.644)" fill="#2b4578"/>
      <path id="Path_57" data-name="Path 57" d="M281.27,379.062s-13.522-3.7-17,13.543c0,0,10.815,5.1,18.816-9.62Z" transform="translate(-250.303 -151.861)" fill="#2b4578"/>
      <path id="Path_58" data-name="Path 58" d="M272.919,357.749s-10.73-9.083-22.619,3.669c0,0,10.051,7.867,23.05-.975Z" transform="translate(-246.207 -144.792)" fill="#2b4578"/>
      <path id="Path_59" data-name="Path 59" d="M267.657,334.292s-10.928-9.528-22.237,3c0,0,11.889,8.058,22.654-.424Z" transform="translate(-244.777 -137.818)" fill="#2b4578"/>
      <path id="Path_60" data-name="Path 60" d="M266.323,312.712s-8.991-14.844-21.813-5.754c0,0,9.8,12.865,21.672,8.482Z" transform="translate(-244.51 -129.957)" fill="#2b4578"/>
      <path id="Path_61" data-name="Path 61" d="M266.722,288.32s-8.991-15.119-21.912-5.337c0,0,11.055,13.43,21.679,7.938Z" transform="translate(-244.598 -122.827)" fill="#2b4578"/>
      <path id="Path_62" data-name="Path 62" d="M270.9,263.592s-5.393-17.3-17.332-16.964c0,0,5.513,18.279,16.293,20.442Z" transform="translate(-247.166 -113.134)" fill="#2b4578"/>
      <path id="Path_63" data-name="Path 63" d="M273.473,241.87s-4.439-21.17-14.243-20.35c0,0,2.955,16.144,13.642,23.545Z" transform="translate(-248.825 -105.768)" fill="#2b4578"/>
      <path id="Path_64" data-name="Path 64" d="M278.81,217.767s-5.768-17.275-15.36-17.947c0,0,3.937,17,15.155,22.442Z" transform="translate(-250.062 -99.413)" fill="#2b4578"/>
      <path id="Path_65" data-name="Path 65" d="M286.021,195.385s-3.1-18.463-9.189-20.265c0,0-.785,17.3,7.931,22.895Z" transform="translate(-253.98 -92.172)" fill="#2b4578"/>
      <path id="Path_66" data-name="Path 66" d="M289.054,174.12s-3.881-18.908-10.164-20.64c0,0,.445,15.388,9.493,22.025Z" transform="translate(-254.589 -85.828)" fill="#2b4578"/>
      <path id="Path_67" data-name="Path 67" d="M295.131,149.677s-2.545-15.466-7.309-18.427c0,0-1.414,17.629,5.655,21.912Z" transform="translate(-257.173 -79.311)" fill="#2b4578"/>
      <path id="Path_68" data-name="Path 68" d="M294.406,125.587l-8.242-25.107s-2.121,22.011,9.189,29.723Z" transform="translate(-256.675 -70.291)" fill="#2b4578"/>
      <path id="Path_69" data-name="Path 69" d="M287.608,92.33S274.369,76.7,274.27,74.73c0,0,4.05,17.975,18.639,24.9Z" transform="translate(-253.234 -62.742)" fill="#2b4578"/>
      <path id="Path_70" data-name="Path 70" d="M285.974,82.05s-13.833-23.008-18.6-24.28c0,0,15.211,4.87,19.311,23.439Z" transform="translate(-251.212 -57.77)" fill="#2b4578"/>
      <path id="Path_71" data-name="Path 71" d="M295.781,140.136l-.707-.1c3.909-28.422,3.181-46.051-2.064-49.62l.4-.587C298.976,93.626,299.789,111.021,295.781,140.136Z" transform="translate(-258.728 -67.169)" fill="#444053"/>
      <path id="Path_72" data-name="Path 72" d="M278.693,227.294l-1.053-.191c.481-2.622,1.018-5.294,1.612-7.945,5.167-23.008,9.288-44.3,11.514-60.5l.8-.58c-2.234,16.257-6.1,38.276-11.267,61.319C279.7,221.993,279.167,224.651,278.693,227.294Z" transform="translate(-254.222 -87.177)" fill="#444053"/>
      <path id="Path_73" data-name="Path 73" d="M322.649,400.681c-.155-.127-16.074-13.1-29.687-37.463a154.426,154.426,0,0,1-16.724-45.712c-3.909-20.032-3.336-43.2.594-64.8l.933.792c-8.8,48.475,4.029,86.716,16.427,108.974,13.43,24.132,29.179,36.968,29.341,37.1Z" transform="translate(-253.032 -114.918)" fill="#444053"/>
    </g>
    <path id="Path_74" data-name="Path 74" d="M1025.6,805.854s-29.885-1.8-26.358,19.141a5.1,5.1,0,0,0,2.651,5.379s.057-1.555,3.068-1.025a13.686,13.686,0,0,0,3.244.155,6.8,6.8,0,0,0,3.972-1.64h0s8.4-3.471,11.663-17.2c0,0,2.417-3,2.326-3.767l-5.047,2.121s1.725,3.64.368,6.658c0,0-.162-6.524-1.131-6.362-.2.035-2.622,1.265-2.622,1.265s2.969,6.362.707,10.942c0,0,.848-7.811-1.654-10.49l-3.534,2.078s3.464,6.545,1.117,11.882c0,0,.6-8.192-1.866-11.38l-3.216,2.509s3.258,6.453,1.272,10.878c0,0-.261-9.535-1.965-10.256,0,0-2.827,2.481-3.245,3.534,0,0,2.227,4.679.848,7.153,0,0-.848-6.362-1.548-6.362,0,0-2.827,4.206-3.1,7.068a15.269,15.269,0,0,1,2.417-7.493,8.4,8.4,0,0,0-4.291,2.22s.438-2.976,4.948-3.237c0,0,2.318-3.188,2.94-3.386,0,0-4.531-.375-7.273.841,0,0,2.417-2.827,8.1-1.534l3.174-2.594s-5.959-.813-8.482.085c0,0,2.905-2.481,9.337-.672l3.456-2.064s-5.075-1.1-8.1-.707c0,0,3.195-1.725,9.118.141l2.474-1.11s-3.725-.707-4.814-.848-1.145-.417-1.145-.417a12.878,12.878,0,0,1,6.984.778S1025.69,806.186,1025.6,805.854Z" transform="translate(-308.612 -272.816)" fill="#2b4578"/>
    <ellipse id="Ellipse_1" data-name="Ellipse 1" cx="21.149" cy="3.577" rx="21.149" ry="3.577" transform="translate(675.254 555.805)" fill="#2b4578" opacity="0.1"/>
    <path id="Path_75" data-name="Path 75" d="M1111.525,727.791s-16.844-1.011-14.844,10.794a2.877,2.877,0,0,0,1.491,3.032s.035-.876,1.732-.58a7.511,7.511,0,0,0,1.831.092,3.781,3.781,0,0,0,2.234-.926h0s4.736-1.958,6.581-9.7c0,0,1.364-1.689,1.308-2.12l-2.827,1.216a5.1,5.1,0,0,1,.205,3.753s-.092-3.683-.636-3.591c-.113,0-1.477.707-1.477.707s1.668,3.577.41,6.171c0,0,.481-4.4-.933-5.909l-2,1.166s1.951,3.69.629,6.7c0,0,.339-4.616-1.053-6.418l-1.81,1.414s1.831,3.64.707,6.135c0,0-.148-5.372-1.11-5.782a11.3,11.3,0,0,0-1.831,1.972s1.258,2.644.481,4.036c0,0-.481-3.584-.869-3.6a11.875,11.875,0,0,0-1.746,4,8.639,8.639,0,0,1,1.364-4.241,4.764,4.764,0,0,0-2.424,1.251s.247-1.675,2.827-1.824a11,11,0,0,1,1.654-1.909,10.415,10.415,0,0,0-4.1.474s1.364-1.583,4.566-.869l1.8-1.456s-3.365-.459-4.785.049c0,0,1.64-1.414,5.266-.382l1.951-1.166a17.829,17.829,0,0,0-4.573-.4s1.8-.968,5.139.085l1.414-.629s-2.121-.41-2.714-.474-.65-.24-.65-.24a7.294,7.294,0,0,1,3.944.438A16.825,16.825,0,0,0,1111.525,727.791Z" transform="translate(-337.214 -249.936)" fill="#2b4578"/>
    <ellipse id="Ellipse_2" data-name="Ellipse 2" cx="11.924" cy="2.015" rx="11.924" ry="2.015" transform="translate(750.787 490.698)" fill="#2b4578" opacity="0.1"/>
    <path id="Path_76" data-name="Path 76" d="M969.538,742.289s-20.343-1.23-17.94,13.027a3.47,3.47,0,0,0,1.8,3.661s0-1.053,2.085-.707a9.7,9.7,0,0,0,2.212.113,4.651,4.651,0,0,0,2.7-1.117h0s5.718-2.361,7.945-11.712c0,0,1.647-2.036,1.576-2.559l-3.428,1.463a6.157,6.157,0,0,1,.247,4.538s-.106-4.446-.771-4.34c-.134,0-1.781.855-1.781.855s2.014,4.319.495,7.45c0,0,.58-5.316-1.124-7.139l-2.417,1.414s2.354,4.453.756,8.093c0,0,.41-5.577-1.265-7.775l-2.191,1.7s2.219,4.389.869,7.408c0,0-.177-6.489-1.343-6.984a13.3,13.3,0,0,0-2.205,2.382s1.513,3.188.573,4.87c0,0-.573-4.319-1.046-4.34,0,0-1.908,2.863-2.12,4.828a10.44,10.44,0,0,1,1.647-5.1,5.747,5.747,0,0,0-2.919,1.513s.3-2.029,3.393-2.205a13.294,13.294,0,0,1,2-2.3,12.585,12.585,0,0,0-4.948.573s1.64-1.916,5.506-1.046l2.163-1.76s-4.05-.558-5.775.057c0,0,1.979-1.689,6.362-.459l2.354-1.414a21.282,21.282,0,0,0-5.521-.481s2.177-1.166,6.206.1l1.689-.693s-2.531-.495-3.273-.573-.778-.283-.778-.283a8.786,8.786,0,0,1,4.757.53S969.6,742.515,969.538,742.289Z" transform="translate(-294.673 -254.185)" fill="#2b4578"/>
    <ellipse id="Ellipse_3" data-name="Ellipse 3" cx="14.398" cy="2.432" rx="14.398" ry="2.432" transform="translate(646.457 503.605)" fill="#2b4578" opacity="0.1"/>
    <path id="Path_77" data-name="Path 77" d="M583.553,626.647l-70.9,27.433L409.013,694.136c-3.909-7.259-9.677-17.19-16.816-28.981-24.542-40.679-65.157-103.948-101.3-159.549-40.742-62.648-75.8-115.548-75.8-115.548l25.383-7.358L447.8,322.57Z" transform="translate(-78.819 -131.15)" opacity="0.1"/>
    <path id="Path_78" data-name="Path 78" d="M585.553,619.647l-70.9,27.433L411.013,687.136c-3.909-7.259-9.677-17.19-16.816-28.981-24.542-40.679-65.157-103.948-101.3-159.549-40.742-62.648-75.8-115.548-75.8-115.548l25.383-7.358L449.8,315.57Z" transform="translate(-79.405 -129.098)" fill="#fff"/>
    <path id="Path_79" data-name="Path 79" d="M596.081,619.647l-70.9,27.433a533.245,533.245,0,0,1-120.453,11.076c-24.542-40.679-65.157-103.948-101.3-159.549L253,375.7,460.331,315.57Z" transform="translate(-89.932 -129.098)" opacity="0.1"/>
    <path id="Path_80" data-name="Path 80" d="M644.728,590.037s-110.154,65.157-274.609,50.455L239,320.864l62.831-10.793,217.2-37.3L642.268,583.859Z" transform="translate(-85.828 -116.55)" fill="#2b4578"/>
    <path id="Path_81" data-name="Path 81" d="M668.339,583.859c-25.941,1.272-55.94,1.152-86.136-2.446-32.67-3.831-65.5-11.762-93.7-26.28-23.552-12.136-43.69-25.319-61.255-41.145-45.669-41.082-73.936-99.849-99.319-203.917l217.2-37.3Z" transform="translate(-111.898 -116.55)" opacity="0.1"/>
    <path id="Path_82" data-name="Path 82" d="M743.026,527.384S661.8,543.3,579.194,533.5c-32.67-3.852-65.531-11.762-93.7-26.28-23.552-12.136-43.69-25.319-61.255-41.145-56.547-50.893-86.383-128.8-117.159-286.208,0,0,135.007,32.578,268.4-38.785C575.476,141.08,620.466,421.888,743.026,527.384Z" transform="translate(-105.786 -77.945)" fill="#fff"/>
    <path id="Path_83" data-name="Path 83" d="M627.784,655.75c-32.67-3.852-65.531-11.762-93.7-26.28-23.552-12.136-43.69-25.319-61.255-41.145,48.129-3.909,55.049-30.225,55.049-30.225C563.56,614.732,627.784,655.75,627.784,655.75Z" transform="translate(-154.377 -200.197)" opacity="0.1"/>
    <path id="Path_84" data-name="Path 84" d="M405.85,265.324s72.522,8.277,140.4-29.864L550.9,250.4s-64.938,32.38-145.051,32.38Z" transform="translate(-134.741 -105.613)" fill="#2b4578" opacity="0.3"/>
    <path id="Path_85" data-name="Path 85" d="M405.85,363.5s72.1-5.817,152.36-44.609l2.714,6.206s-29.539,37.173-155.074,46.885Z" transform="translate(-134.741 -130.071)" opacity="0.3"/>
    <path id="Path_86" data-name="Path 86" d="M417.94,404.182s72.1-5.817,152.36-44.6l2.714,6.206s-29.532,37.208-155.074,46.927Z" transform="translate(-138.285 -141.999)" opacity="0.3"/>
    <path id="Path_87" data-name="Path 87" d="M429,448.032s72.1-5.817,152.36-44.6l2.714,6.206S554.5,446.823,429,456.563Z" transform="translate(-141.528 -154.854)" opacity="0.3"/>
    <path id="Path_88" data-name="Path 88" d="M442.13,485.612s72.1-5.817,152.36-44.6l2.714,6.206S567.672,484.41,442.13,494.15Z" transform="translate(-145.377 -165.871)" opacity="0.3"/>
    <path id="Path_89" data-name="Path 89" d="M454.23,526.332s72.1-5.817,152.36-44.6l2.714,6.206S579.765,525.13,454.23,534.863Z" transform="translate(-148.924 -177.808)" opacity="0.1"/>
    <rect id="Rectangle_1" data-name="Rectangle 1" width="21.311" height="21.311" transform="translate(435.38 176.329) rotate(-18.8)" fill="#2b4578" opacity="0.3"/>
    <rect id="Rectangle_2" data-name="Rectangle 2" width="21.311" height="21.311" transform="translate(446.857 206.343) rotate(-18.8)" fill="#2b4578" opacity="0.3"/>
    <rect id="Rectangle_3" data-name="Rectangle 3" width="21.311" height="21.311" transform="translate(465.256 264.091) rotate(-18.8)" fill="#2b4578" opacity="0.3"/>
    <rect id="Rectangle_4" data-name="Rectangle 4" width="21.311" height="21.311" transform="translate(475.813 295.086) rotate(-18.8)" fill="#2b4578" opacity="0.3"/>
    <rect id="Rectangle_5" data-name="Rectangle 5" width="21.311" height="21.311" transform="translate(456.215 237.521) rotate(-18.8)" fill="#2b4578" opacity="0.3"/>
    <path id="Path_90" data-name="Path 90" d="M926.248,434.954l-.756-.707c1.951-.4,3.789-.573,3.789-.573s-6.694-24.216-17.982-32.3c-5.584-3.994-10.235-10.645-13.522-16.349A247.186,247.186,0,0,0,877.638,355.5l-2.036-2.566-.877-1.117c1.223-1.852,2.721-3.612,2.552-5.761a.093.093,0,0,1,0-.042,2.7,2.7,0,0,0,0-.339,3.945,3.945,0,0,0-.141-.785l-.078.12c-.954-2.771-4.623-3.994-7.344-5.52-6.362-3.584-9.083-11.416-10.44-18.7-1.06-5.655-1.937-12.016-6.362-15.657-2.827-2.34-6.673-3.11-9.521-5.436-2.7-2.205-4.206-5.549-5.9-8.623-2.827-5.125-6.56-9.9-11.486-12.956s-11.182-4.241-16.59-2.191c-2.071.792-3.951,2.022-6,2.877-5.089,2.121-10.921,1.838-15.961,4.078-6.206,2.757-10.242,8.85-13.932,14.632-1.909,2.99-4.906,7.365-6.609,11.769v-.459a16.837,16.837,0,0,0-1.315,6.121,9.19,9.19,0,0,0,.29,2.658c.763,2.827,3.039,4.389,5.74,5.478a23.927,23.927,0,0,0,.622,2.665,26.153,26.153,0,0,0,16.894,17.254c.233.085.474.141.707.212a5.611,5.611,0,0,0,.841,1.555c2.255,2.827,6.779,2.022,9.719-.035.12-.078.233-.177.346-.262a10.613,10.613,0,0,0,.127,1.195c.064.339.113.707.184,1.011,2.651,14.285,9.436,22,9.436,22s.629.947,1.654,2.516c-.537,7.881,3.061,15.063,7.217,20.612-3.584,2.071-11.31,6.128-16.088,5.789,0,0-17.558,2.269-19.594,1.131-.283-.155-.551.057-.806.537-4.835-2.948-20.294-11.444-21.615-.537-1.195,9.9,12.893,11.161,19.6,11.211-.3,2.9-.474,5.217-.474,5.217l28.846-1.972,15.02-2.212a18.074,18.074,0,0,1-5.365,5.111s-13.578,10.991-15.925,11.09c-.332,0-.438.332-.389.862-5.711,0-23.474.827-18.548,10.723,4.474,8.97,17.07,2.764,22.767-.664,1.343,2.608,2.488,4.651,2.488,4.651l23.276-16.575,5.04-4.241a17.938,17.938,0,0,0,5.011-.968.584.584,0,0,0,.071.184,9.563,9.563,0,0,1,.4,1.6c1.414,8.122-3.336,27.065-3.336,27.065s-10.447,26.641-5.429,30.274,1.308,18.965,1.308,18.965a28.345,28.345,0,0,0,3.011,4.156h0a12.633,12.633,0,0,0,1.76,1.675,16.331,16.331,0,0,0-.58,1.944,15.847,15.847,0,0,0,.827,9.783c3.449,8.369,1.35,20.5,1.35,20.5l-6.772,45.747c-3.251-.495-7.45-.9-9.012,0-2.4,1.35-1.612,8.157,3.951,11.083a14.32,14.32,0,0,1-5.725,2.636c-4.948,1.131-8.426,1.852-10.716,2.29-.148,0-11.875-2.587-14.886-.876s-1.562,11.2,7,13.522c8.383,2.269,39.647,5.6,48.652,4.241l.573-.1c7.655-1.513.933-11.571.085-12.794-.057-.41-.106-.841-.163-1.308-.12-1.046-.226-2.248-.3-3.534,8.539.785,16.964,1.166,20.831.587a2.245,2.245,0,0,0,.509-.092c6.779-1.343.841-10.235.078-11.31q-.05-.41-.106-.869v-.078c0-.2-.049-.424-.071-.636a2.749,2.749,0,0,0-.057-.551c-.057-.191,0-.339-.049-.516q-.042-.523-.085-1.081V583c0-.283-.035-.565-.049-.855v-.474c0-.424,0-.862-.042-1.3v-3.456c0-.474.042-.961.071-1.449l.042-.523c0-.361.057-.707.092-1.074a1.694,1.694,0,0,1,.057-.53c.057-.495.12-.99.191-1.491a3.245,3.245,0,0,1,.071-.445c.064-.375.127-.756.2-1.138a2.762,2.762,0,0,1,.113-.565q.127-.615.276-1.23a1.471,1.471,0,0,1,.078-.339c.127-.495.269-.982.417-1.47.049-.17.106-.339.163-.509.12-.368.247-.707.382-1.089l.17-.452c.191-.481.4-.954.608-1.414.057-.12.12-.24.184-.361.177-.368.368-.707.565-1.089l.24-.417c.269-.452.544-.9.848-1.336,7.775-11.083,9.825-32.458,9.634-37.109s.926-14.3,2.318-15.727a122.757,122.757,0,0,0,9.606-14.208c.587-1.046,1.1-2.029,1.5-2.905,2.3-.8,3.831-1.414,3.831-1.414h0a32.771,32.771,0,0,1-1.159-9.111,27.617,27.617,0,0,1,8.539-20.371c10.08-9.5,11.486-18.915,11.62-22.534v-.672C926.283,435.279,926.248,434.954,926.248,434.954Z" transform="translate(-238.914 -117.178)" fill="url(#linear-gradient)"/>
    <path id="Path_91" data-name="Path 91" d="M930.7,580.658a121.487,121.487,0,0,1-9.189,14.045c-1.329,1.414-2.4,10.963-2.212,15.551s-1.76,25.736-9.189,36.692-3.612,29.892-3.612,29.892l-11.854,4.156H880.4l-9.811-2.933L868,670.922s3.449-.53,12.016-2.566a11.118,11.118,0,0,0,8.871-10.087l6.015-42.008s1.774-10.6-1.152-17.94a14.6,14.6,0,0,1,.961-12.794l.191-.3a119.789,119.789,0,0,1,18.738-11.917c8.376-4.043,16.872-5.966,19.283,1.209C933.235,575.449,932.217,577.831,930.7,580.658Z" transform="translate(-270.223 -203.6)" fill="#a5636d"/>
    <path id="Path_92" data-name="Path 92" d="M930.7,580.658a121.487,121.487,0,0,1-9.189,14.045c-1.329,1.414-2.4,10.963-2.212,15.551s-1.76,25.736-9.189,36.692c-5.231,7.726-4.884,19.4-4.241,25.63.276,2.608.615,4.241.615,4.241l-11.854,4.156H880.4l-9.811-2.912L868,670.922s.862-.134,2.827-.516,4.948-1.032,9.231-2.05a11.119,11.119,0,0,0,8.829-10.087l6.015-42.008s1.774-10.6-1.152-17.94a14.6,14.6,0,0,1,.961-12.794l.191-.3a119.789,119.789,0,0,1,18.738-11.917c8.376-4.043,16.872-5.966,19.283,1.209C933.235,575.449,932.217,577.831,930.7,580.658Z" transform="translate(-270.223 -203.6)" opacity="0.05"/>
    <path id="Path_93" data-name="Path 93" d="M906.495,718.609l-11.854,4.156H880.4l-9.811-2.94L868,712.686s.862-.134,2.827-.516a5.337,5.337,0,0,0,4.107,5.768l5.57.191c.785,0,1.576.042,2.354.042a71.026,71.026,0,0,0,23.029-3.824C906.17,716.955,906.495,718.609,906.495,718.609Z" transform="translate(-270.223 -245.363)" opacity="0.1"/>
    <path id="Path_94" data-name="Path 94" d="M876,718.783l-5.577-.191s-5.2-1.1-3.93-7c0,0-10.037-2.276-12.6-.771s-1.329,9.811,5.923,11.847c7.068,1.986,33.547,4.906,41.159,3.711l.488-.085c6.9-1.414,0-11.309,0-11.309h0a71.3,71.3,0,0,1-25.46,3.8Z" transform="translate(-265.729 -244.816)" fill="#bebed0"/>
    <path id="Path_95" data-name="Path 95" d="M904.529,583.164c-.375.749-.778,1.527-1.237,2.34A131.672,131.672,0,0,1,893.2,600.913c-1.5,1.6-2.693,12.37-2.5,17.572s-1.986,29.037-10.369,41.407c-4.291,6.362-5.259,15.02-5.188,21.99q.032,3.542.417,7.068c.311,2.877.707,4.672.707,4.672l-13.373,4.686H846.794l-11.076-3.294-2.9-8.086s.968-.156,3.145-.587,5.57-1.152,10.419-2.3a12.568,12.568,0,0,0,9.988-11.38l6.779-47.408s2-11.981-1.294-20.251a16.257,16.257,0,0,1-.792-9.677,15.437,15.437,0,0,1,2.121-5.1s2.587-2.036,6.489-4.729c1.725-1.187,3.725-2.5,5.874-3.831,9.443-5.846,21.863-11.811,27.814-7.464a7.7,7.7,0,0,1,2.743,3.951C906.346,578.972,905.674,580.831,904.529,583.164Z" transform="translate(-259.91 -204.48)" fill="#a5636d"/>
    <path id="Path_96" data-name="Path 96" d="M876.227,740.76l-13.373,4.686H846.794l-11.076-3.294-2.9-8.086s.968-.156,3.145-.587a5.9,5.9,0,0,0,1.88,5.224,6.3,6.3,0,0,0,3.987,1.5l5.068.163c.884,0,1.774.049,2.658.049a80.4,80.4,0,0,0,26-4.326C875.867,738.965,876.227,740.76,876.227,740.76Z" transform="translate(-259.91 -251.611)" opacity="0.1"/>
    <path id="Path_97" data-name="Path 97" d="M841.8,740.951l-5.061-.17a6.361,6.361,0,0,1-3.994-1.5c-1.286-1.145-2.4-3.124-1.675-6.453,0,0-11.31-2.566-14.229-.869s-1.491,11.076,6.687,13.373c8.009,2.241,37.866,5.535,46.461,4.192l.544-.1c7.775-1.6,0-12.78,0-12.78h0A80.2,80.2,0,0,1,841.8,740.951Z" transform="translate(-254.819 -250.995)" fill="#bebed0"/>
    <path id="Path_98" data-name="Path 98" d="M935.666,580.664c-4.842,1.689-11.953,3.93-15.854,4.022a7.106,7.106,0,0,1-1.209-.057h0c-2.728-.375-11.161.226-18.894.919-3.1.276-6.086.565-8.553.82-3.676.382-6.206.657-6.206.657v-2.4c1.725-1.187,3.725-2.5,5.874-3.831,9.443-5.846,21.863-11.811,27.814-7.464,8.376-4.043,16.872-5.966,19.283,1.209C938.2,575.455,937.186,577.837,935.666,580.664Z" transform="translate(-275.192 -203.605)" opacity="0.1"/>
    <path id="Path_99" data-name="Path 99" d="M958.876,503.161c-.134,3.584-1.477,12.886-11.1,22.287-12.271,11.981-7.068,29.186-7.068,29.186s-14.632,5.747-20.944,5.9a7.107,7.107,0,0,1-1.209-.057c-3.789-.53-18.83.862-27.475,1.739-3.676.382-6.206.657-6.206.657V511.982l67.807-16.462,6.142,6.114A11.287,11.287,0,0,1,958.876,503.161Z" transform="translate(-275.169 -181.851)" fill="#5c5c8e"/>
    <path id="Path_100" data-name="Path 100" d="M955.5,576.89" transform="translate(-295.875 -205.705)" fill="none"/>
    <g id="Group_2" data-name="Group 2" transform="translate(609.729 313.69)" opacity="0.1">
      <path id="Path_101" data-name="Path 101" d="M886.027,589.154l-1.117.12v.537s2.531-.276,6.206-.657c6.206-.629,15.685-1.513,21.955-1.774C908.731,586.984,894.4,588.306,886.027,589.154Z" transform="translate(-884.91 -522.449)"/>
      <path id="Path_102" data-name="Path 102" d="M971.985,501.671l-6.142-6.121-4.093,1.025L966.9,501.7a11.324,11.324,0,0,1,0,1.534c-.134,3.577-1.477,12.886-11.1,22.287-12.271,11.974-7.068,29.186-7.068,29.186s-12.108,4.75-19.042,5.733a17.488,17.488,0,0,1,1.979.106,7.071,7.071,0,0,0,1.209.064c6.312-.156,20.944-5.9,20.944-5.9s-5.231-17.212,7.068-29.186c9.627-9.4,10.97-18.71,11.1-22.287A11.309,11.309,0,0,0,971.985,501.671Z" transform="translate(-898.035 -495.55)"/>
    </g>
    <path id="Path_103" data-name="Path 103" d="M788.715,452.666s-20.5-14.222-22-1.414,22,10.977,22,10.977Z" transform="translate(-240.51 -167.306)" fill="#a5636d"/>
    <path id="Path_104" data-name="Path 104" d="M831.661,442.13s-11.09,7.337-17.226,6.885c0,0-16.766,2.248-18.717,1.124S792.58,466.4,792.58,466.4l27.567-1.944,17.671-2.7s8.836-5.386,8.836-10.03S831.661,442.13,831.661,442.13Z" transform="translate(-248.113 -166.199)" fill="#f7cddd"/>
    <path id="Path_105" data-name="Path 105" d="M831.661,442.13s-11.09,7.337-17.226,6.885c0,0-16.766,2.248-18.717,1.124S792.58,466.4,792.58,466.4l27.567-1.944,17.671-2.7s8.836-5.386,8.836-10.03S831.661,442.13,831.661,442.13Z" transform="translate(-248.113 -166.199)" opacity="0.05"/>
    <path id="Path_106" data-name="Path 106" d="M816.5,494.48s-24.93-1.032-19.346,10.6,24.478-2.488,24.478-2.488Z" transform="translate(-249.215 -181.539)" fill="#a5636d"/>
    <path id="Path_107" data-name="Path 107" d="M853.026,443.25s-20.209-15.119-17.36-33.533,17.36,14.094,17.36,14.094Z" transform="translate(-260.664 -155.042)" fill="#5c5c8e"/>
    <path id="Path_108" data-name="Path 108" d="M831.249,330.81a25.574,25.574,0,0,1-7.189,17.749,24.041,24.041,0,0,1-3.69,3.146,26.358,26.358,0,0,1-8.383,3.873,26.633,26.633,0,0,1-3.626.643c-.876.085-1.76.134-2.658.134a24.922,24.922,0,0,1-8.418-1.414,25.545,25.545,0,1,1,33.964-24.1Z" transform="translate(-244.471 -126.08)" fill="#a5636d"/>
    <path id="Path_109" data-name="Path 109" d="M955.332,503.161c-2.29.424-5.118,1.188-5.118,2.375,0,2-31.935,12.78-31.935,12.78s1.195,2.785-1.993,7.577-29.143,32.331-29.143,32.331l.085.82.332,3.174,1.583,15.169s-9.981-3.591-13.176-3.195c-1.032.134-2.12-.53-3.188-1.484a15.438,15.438,0,0,1,2.121-5.1s2.587-2.036,6.489-4.729V511.982L949.2,495.52l6.142,6.114A11.32,11.32,0,0,1,955.332,503.161Z" transform="translate(-271.625 -181.851)" opacity="0.1"/>
    <path id="Path_110" data-name="Path 110" d="M945.453,459.149s-7.987.792-7.987,2.792-31.935,12.78-31.935,12.78,1.195,2.785-1.993,7.577-29.143,32.338-29.143,32.338l2,19.155s-9.981-3.591-13.176-3.195c-1.414.177-3-1.138-4.312-2.672a27.8,27.8,0,0,1-2.877-4.107s3.6-15.176-1.194-18.767,5.188-29.935,5.188-29.935,4.51-18.731,3.181-26.768a9.649,9.649,0,0,0-.382-1.583.57.57,0,0,0-.057-.177c-2.827-7.676-33.476-72.1-33.476-72.1a46.288,46.288,0,0,1,.382-5.464c.064-.5.148-1.025.24-1.555a26.345,26.345,0,0,1,.622-2.827,17.645,17.645,0,0,1,.58-1.76c.947-2.432,2.4-4.3,4.559-4.347,0,0,2.4-2.651,8.016-3.372,4.114-.537,9.988,0,17.94,3.372,18.753,7.973,23.149,8.383,23.149,8.383l9.422,12.37,1.937,2.538A244.5,244.5,0,0,1,915.37,411.02c3.138,5.655,7.584,12.221,12.914,16.173C939.063,435.2,945.453,459.149,945.453,459.149Z" transform="translate(-258.875 -140.652)" fill="#f7cddd"/>
    <path id="Path_111" data-name="Path 111" d="M894.65,437.05s26.648,6.588,36.975,23.2Z" transform="translate(-278.036 -164.71)" opacity="0.1"/>
    <path id="Path_112" data-name="Path 112" d="M906.3,478.34s5.04,33.837,3.64,36.381S906.3,478.34,906.3,478.34Z" transform="translate(-281.451 -176.815)" opacity="0.1"/>
    <path id="Path_113" data-name="Path 113" d="M894.2,499.363c-1.937,2.538-9.8,22.152-9.8,22.152l2.269,32.939,2,19.155s-9.974-3.591-13.169-3.195c-1.414.177-3.011-1.138-4.312-2.672,2.071-11.218,6.5-34.692,7.3-35.144,1.053-.6,6.446-19.459,6.729-24.74S893,490.81,893,490.81,896.156,496.825,894.2,499.363Z" transform="translate(-271.159 -180.47)" opacity="0.1"/>
    <path id="Path_114" data-name="Path 114" d="M874.394,430.949c-.495,1.491-1.258,10.179-1.258,10.179-.551,7.648-6.362,10.15-9.931,10.956a9.638,9.638,0,0,0-.382-1.583c-2.4-6.779-33.533-72.246-33.533-72.246a43.013,43.013,0,0,1,1.244-9.853c6.779-1.993,17.508,1.074,17.508,1.074,3.1-.41,13.225,19.714,13.225,19.714s6.743,15.409,7.485,17.508,0,5.542.3,6.743,3.449,2.234,3.895,3.888.155,4.948.452,5.535S874.9,429.451,874.394,430.949Z" transform="translate(-258.875 -144.388)" opacity="0.1"/>
    <path id="Path_115" data-name="Path 115" d="M869.285,429.245c-.495,1.5-1.258,10.179-1.258,10.179a11.306,11.306,0,0,1-7.973,10.4,16.71,16.71,0,0,1-4.792.954l-4.814,4.185-22.23,16.363s-8.284-15.317-6.036-15.4,15.211-10.97,15.211-10.97c3.965-2.121,7.938-9.189,9.783-12.822a11.207,11.207,0,0,1-.24-1.315c-.8-6.779-17.565-32.734-17.565-32.734s-6.482-7.627-9.005-21.757c-.071-.325-.12-.657-.184-1a10.135,10.135,0,0,1-.127-1.329c-.3-5.436,3.654-7.415,8.348-7.881h0a33.5,33.5,0,0,1,7.351.226,53.216,53.216,0,0,1,7.189,1.414c2.008-.269,6.955,8.079,10.2,14h0c1.746,3.209,3,5.711,3,5.711s6.743,15.416,7.485,17.508,0,5.549.3,6.743,3.449,2.241,3.895,3.895.156,4.948.452,5.535S869.787,427.746,869.285,429.245Z" transform="translate(-256.163 -143.885)" fill="#f7cddd"/>
    <path id="Path_116" data-name="Path 116" d="M883.363,376.908c-4.241,4.333-11.09,4.347-16.59,2.121s-10.157-6.213-15.254-9.316c-3.308-2.022-6.814-3.676-10.073-5.761h0c-.481-.311-.947-.622-1.414-.947-3.76-2.658-7.019-6.072-10.914-8.482a16.965,16.965,0,0,0-8.765-2.827,9.967,9.967,0,0,0-4.177.876,5.654,5.654,0,0,0-.707.346,18.027,18.027,0,0,0-3.534,2.651c-1.1.99-2.156,2.043-3.315,2.969-.071-.325-.12-.657-.184-1a10.135,10.135,0,0,1-.127-1.329c-.876.085-1.76.134-2.658.134a24.924,24.924,0,0,1-8.418-1.414.573.573,0,0,0-.064-.318c-.954-5.033-2.679-10.362-6.729-13.19-2.347-1.64-6.093-2.311-9.344-3.534a25.545,25.545,0,1,1,48.136,2.764c4.114-.537,9.988,0,17.94,3.372,18.753,7.973,23.149,8.383,23.149,8.383l9.422,12.37c-1.018,1.555-2.17,3.089-2.276,4.906C877.292,373.013,880.536,375.339,883.363,376.908Z" transform="translate(-244.456 -126.084)" opacity="0.1"/>
    <path id="Path_117" data-name="Path 117" d="M788.266,331.662c4.05,2.827,5.775,8.15,6.736,13.176a10.274,10.274,0,0,0,1.541,4.467c2.121,2.785,6.475,2,9.281,0s5.019-5.033,8.15-6.446c4.156-1.88,9.048-.509,12.942,1.93s7.153,5.853,10.914,8.482c3.64,2.566,7.7,4.4,11.486,6.708,5.1,3.1,9.754,7.111,15.254,9.316s12.37,2.2,16.583-2.121c-2.827-1.569-6.072-3.888-5.853-7.252s4.135-5.874,3.873-9.323-4.319-4.8-7.231-6.5c-6.079-3.534-8.673-11.31-9.974-18.484-1.011-5.612-1.845-11.882-6.036-15.487-2.707-2.318-6.362-3.075-9.09-5.372-2.58-2.184-4.015-5.485-5.655-8.532-2.707-5.068-6.263-9.783-10.963-12.815s-10.68-4.241-15.84-2.163c-1.979.785-3.782,2-5.732,2.827-4.863,2.121-10.426,1.817-15.24,4.029-5.93,2.728-9.783,8.751-13.31,14.469-2.983,4.9-8.9,13.536-7.224,19.9C774.547,328.94,783.87,328.594,788.266,331.662Z" transform="translate(-242.252 -118.732)" fill="#4c3e42"/>
    <g id="Group_3" data-name="Group 3" transform="translate(530.316 195.046)" opacity="0.1">
      <path id="Path_118" data-name="Path 118" d="M922.258,378.918a4.464,4.464,0,0,0-.134-.778c-1.074,1.689-2.41,3.329-2.538,5.308a4.822,4.822,0,0,0,.113,1.364C920.894,382.911,922.428,381.123,922.258,378.918Z" transform="translate(-815.66 -342.487)"/>
      <path id="Path_119" data-name="Path 119" d="M865.758,378.056c-5.5-2.205-10.15-6.213-15.247-9.316-3.8-2.311-7.853-4.142-11.493-6.708-3.76-2.658-7.019-6.072-10.914-8.482s-8.779-3.81-12.942-1.937c-3.131,1.414-5.337,4.418-8.15,6.453s-7.125,2.827-9.281,0a10.275,10.275,0,0,1-1.541-4.467c-.954-5.026-2.686-10.348-6.729-13.176-4.4-3.075-13.727-2.728-15.416-9.189a10.037,10.037,0,0,1-.219-3.534c-1.082,2.884-1.64,5.782-.983,8.305,1.7,6.489,11.02,6.142,15.416,9.189,4.05,2.827,5.775,8.157,6.736,13.183a10.359,10.359,0,0,0,1.534,4.467c2.12,2.785,6.475,2,9.288-.035s5.012-5.033,8.15-6.446c4.156-1.873,9.048-.5,12.942,1.937s7.153,5.853,10.914,8.482c3.64,2.573,7.7,4.4,11.486,6.708,5.1,3.11,9.754,7.118,15.254,9.323s12.37,2.191,16.583-2.121a20.308,20.308,0,0,1-3.089-2.043A17.615,17.615,0,0,1,865.758,378.056Z" transform="translate(-772.561 -327.7)"/>
    </g>
    <path id="Path_120" data-name="Path 120" d="M723.955,458.439l56.547-21.12a5.372,5.372,0,0,1,6.92,3.153h0a5.379,5.379,0,0,1-3.16,6.92l-56.547,21.128L715.6,467.3Z" transform="translate(-225.546 -164.688)" fill="#5c5c8e"/>
    <path id="Path_121" data-name="Path 121" d="M785.7,439.118h0a5.386,5.386,0,0,1-3.16,6.927l-56.547,21.12-9.1-.912-1.308,1.414,12.115,1.216,56.547-21.128a5.379,5.379,0,0,0,3.16-6.92h0a5.357,5.357,0,0,0-2.2-2.686,5.847,5.847,0,0,1,.495.968Z" transform="translate(-225.54 -165.033)" fill="#fff" opacity="0.1"/>
    <path id="Path_122" data-name="Path 122" d="M701.655,415.58l3.767,10.08-9.945-1-2.177-.219,2.976-3.153Z" transform="translate(-203.246 -121.83)" fill="#efc8c4"/>
    <path id="Path_123" data-name="Path 123" d="M718.575,475.42a2.155,2.155,0,0,1,.58.636.912.912,0,0,1,0,.982,2.213,2.213,0,0,1-.551.389,1.8,1.8,0,0,0-.806,1.364l-2.177-.219Z" transform="translate(-225.552 -175.959)" fill="#727a9c"/>
    <path id="Path_124" data-name="Path 124" d="M653.367,304.5l-9.535-4.651a1.152,1.152,0,0,1-.53-1.541l1.011-2.078a1.145,1.145,0,0,1,1.541-.53l6.425,3.131,6.708-13.755a1.159,1.159,0,0,1,1.541-.537l2.078,1.018a1.145,1.145,0,0,1,.53,1.541l-8.228,16.872a1.152,1.152,0,0,1-1.541.53Z" transform="translate(-204.317 -119.969)" fill="#3acc6c"/>
    <path id="Path_125" data-name="Path 125" d="M682.837,388.668l-9.535-4.651a1.152,1.152,0,0,1-.53-1.541l1.011-2.078a1.159,1.159,0,0,1,1.548-.53L681.748,383l6.7-13.769a1.159,1.159,0,0,1,1.541-.537l2.071,1.018a1.152,1.152,0,0,1,.537,1.541l-8.228,16.872a1.166,1.166,0,0,1-1.548.53Z" transform="translate(-212.957 -144.638)" fill="#3acc6c"/>
    <path id="Path_126" data-name="Path 126" d="M669.606,347.177l-9.535-4.651a1.159,1.159,0,0,1-.537-1.541l1.018-2.078a1.145,1.145,0,0,1,1.541-.53l6.425,3.131,6.708-13.776a1.152,1.152,0,0,1,1.541-.53l2.078,1.011a1.166,1.166,0,0,1,.53,1.548l-8.235,16.886a1.152,1.152,0,0,1-1.541.53Z" transform="translate(-209.077 -132.473)" fill="#3acc6c"/>
    <path id="Path_127" data-name="Path 127" d="M695.637,426.674l-9.535-4.651a1.152,1.152,0,0,1-.53-1.541l1.011-2.078a1.152,1.152,0,0,1,1.541-.53l6.425,3.131,6.708-13.755a1.166,1.166,0,0,1,1.548-.537l2.071,1.018a1.145,1.145,0,0,1,.53,1.541l-8.221,16.872A1.166,1.166,0,0,1,695.637,426.674Z" transform="translate(-216.709 -155.783)" fill="#3acc6c"/>
    <path id="Path_128" data-name="Path 128" d="M190.717,693.36s4.206,5.5-1.937,13.8-11.218,15.31-9.189,20.5c0,0,9.274-15.416,16.816-15.628S199.016,702.634,190.717,693.36Z" transform="translate(-68.279 -239.849)" fill="#3acc6c"/>
    <path id="Path_129" data-name="Path 129" d="M190.824,693.36a6.777,6.777,0,0,1,.862,1.725c7.358,8.652,11.309,16.724,4.206,16.964-6.595.184-14.5,11.974-16.392,14.95a5.428,5.428,0,0,0,.219.707s9.274-15.416,16.816-15.628S199.122,702.634,190.824,693.36Z" transform="translate(-68.385 -239.849)" opacity="0.1"/>
    <path id="Path_130" data-name="Path 130" d="M206.178,702.762c0,1.93-.219,3.534-.488,3.534s-.481-1.569-.481-3.534.269-1.025.537-1.025S206.178,700.825,206.178,702.762Z" transform="translate(-75.922 -242.239)" fill="#ffd037"/>
    <path id="Path_131" data-name="Path 131" d="M208.994,705.979c-1.7.926-3.181,1.491-3.308,1.251s1.145-1.173,2.827-2.121,1.025-.254,1.152,0S210.7,705.053,208.994,705.979Z" transform="translate(-76.059 -243.152)" fill="#ffd037"/>
    <path id="Path_132" data-name="Path 132" d="M160.2,693.36s-4.2,5.5,1.944,13.8,11.211,15.31,9.189,20.5c0,0-9.267-15.416-16.816-15.628S151.9,702.634,160.2,693.36Z" transform="translate(-59.966 -239.849)" fill="#3acc6c"/>
    <path id="Path_133" data-name="Path 133" d="M160.181,693.36a6.933,6.933,0,0,0-.855,1.725c-7.365,8.652-11.309,16.724-4.206,16.964,6.588.184,14.5,11.974,16.392,14.95a5.459,5.459,0,0,1-.226.707s-9.267-15.48-16.83-15.692S151.882,702.634,160.181,693.36Z" transform="translate(-59.951 -239.849)" opacity="0.1"/>
    <path id="Path_134" data-name="Path 134" d="M153.05,702.762c0,1.93.212,3.534.481,3.534s.488-1.569.488-3.534-.269-1.025-.537-1.025S153.05,700.825,153.05,702.762Z" transform="translate(-60.631 -242.239)" fill="#ffd037"/>
    <path id="Path_135" data-name="Path 135" d="M148.825,705.979c1.7.926,3.181,1.491,3.308,1.251s-1.145-1.173-2.827-2.121-1.032-.254-1.159,0S147.128,705.053,148.825,705.979Z" transform="translate(-59.092 -243.152)" fill="#ffd037"/>
    <ellipse id="Ellipse_4" data-name="Ellipse 4" cx="43.959" cy="6.743" rx="43.959" ry="6.743" transform="translate(67.382 516.363)" fill="#2b4578" opacity="0.1"/>
    <path id="Path_136" data-name="Path 136" d="M193.043,730.313l-.212,1.718-.29,2.424-.127,1.011-.29,2.424-.134,1.011-.29,2.424-3.365,27.567c-.3,2.46-4.326,4.382-9.189,4.382H161.68c-4.856,0-8.871-1.922-9.189-4.382l-3.365-27.567-.3-2.424-.12-1.011-.3-2.424-.12-1.011-.3-2.424-.212-1.718c-.163-1.414,2.007-2.573,4.757-2.573h35.759C191.049,727.74,193.219,728.92,193.043,730.313Z" transform="translate(-59.083 -249.928)" fill="#65617d"/>
    <path id="Path_137" data-name="Path 137" d="M170.638,682.05l-.3,2.424H126.1l-.29-2.424Z" transform="translate(-36.883 -199.947)" fill="#9d9cb5"/>
    <path id="Path_138" data-name="Path 138" d="M170.394,686.91l-.3,2.424H126.7l-.3-2.424Z" transform="translate(-37.056 -201.372)" fill="#9d9cb5"/>
    <path id="Path_139" data-name="Path 139" d="M170.143,691.77l-.3,2.424H127.287l-.3-2.424Z" transform="translate(-37.229 -202.797)" fill="#9d9cb5"/>
  </g>
</svg>
